<svg width="22" height="22" viewBox="0 0 22 22" fill="none" xmlns="http://www.w3.org/2000/svg">
<g clip-path="url(#clip0_472_1517)">
<path d="M6.20402 21.6832C7.17052 21.6832 7.95402 20.8997 7.95402 19.9332C7.95402 18.9667 7.17052 18.1832 6.20402 18.1832C5.23753 18.1832 4.45403 18.9667 4.45403 19.9332C4.45403 20.8997 5.23753 21.6832 6.20402 21.6832Z" fill="#004EFF"/>
<path d="M14.9541 21.6832C15.9206 21.6832 16.7041 20.8997 16.7041 19.9332C16.7041 18.9667 15.9206 18.1832 14.9541 18.1832C13.9876 18.1832 13.2041 18.9667 13.2041 19.9332C13.2041 20.8997 13.9876 21.6832 14.9541 21.6832Z" fill="#004EFF"/>
<path d="M20.2042 3.30762H18.4542V1.55762C18.4542 1.32555 18.362 1.10299 18.1979 0.938899C18.0338 0.774804 17.8112 0.682617 17.5792 0.682617C17.3471 0.682617 17.1245 0.774804 16.9605 0.938899C16.7964 1.10299 16.7042 1.32555 16.7042 1.55762V3.30762H14.9542C14.7221 3.30762 14.4996 3.3998 14.3355 3.5639C14.1714 3.72799 14.0792 3.95055 14.0792 4.18262C14.0792 4.41468 14.1714 4.63724 14.3355 4.80134C14.4996 4.96543 14.7221 5.05762 14.9542 5.05762H16.7042V6.80762C16.7042 7.03968 16.7964 7.26224 16.9605 7.42634C17.1245 7.59043 17.3471 7.68262 17.5792 7.68262C17.8112 7.68262 18.0338 7.59043 18.1979 7.42634C18.362 7.26224 18.4542 7.03968 18.4542 6.80762V5.05762H20.2042C20.4362 5.05762 20.6588 4.96543 20.8229 4.80134C20.987 4.63724 21.0792 4.41468 21.0792 4.18262C21.0792 3.95055 20.987 3.72799 20.8229 3.5639C20.6588 3.3998 20.4362 3.30762 20.2042 3.30762Z" fill="#004EFF"/>
<path d="M19.1287 9.19287C19.0156 9.1717 18.8994 9.17319 18.7868 9.19727C18.6743 9.22134 18.5676 9.26752 18.473 9.33312C18.3785 9.39872 18.2979 9.48244 18.2359 9.57943C18.1739 9.67641 18.1318 9.78473 18.112 9.89812C18.0028 10.5038 17.6844 11.0518 17.2123 11.4465C16.7402 11.8412 16.1444 12.0575 15.529 12.0576H4.81985L3.99735 5.05762H11.4541C11.6862 5.05762 11.9087 4.96543 12.0728 4.80134C12.2369 4.63724 12.3291 4.41468 12.3291 4.18262C12.3291 3.95055 12.2369 3.72799 12.0728 3.5639C11.9087 3.3998 11.6862 3.30762 11.4541 3.30762H3.79085L3.7541 2.99962C3.6787 2.36139 3.37178 1.773 2.89152 1.34596C2.41125 0.918915 1.79102 0.682891 1.14835 0.682617L0.954102 0.682617C0.722037 0.682617 0.499477 0.774804 0.335383 0.938899C0.171289 1.10299 0.0791016 1.32555 0.0791016 1.55762C0.0791016 1.78968 0.171289 2.01224 0.335383 2.17634C0.499477 2.34043 0.722037 2.43262 0.954102 2.43262H1.14835C1.36267 2.43265 1.56952 2.51133 1.72968 2.65374C1.88983 2.79616 1.99215 2.9924 2.01723 3.20524L3.22123 13.4427C3.34622 14.5074 3.85777 15.4892 4.65877 16.2016C5.45977 16.9141 6.49447 17.3076 7.56648 17.3076H16.7041C16.9362 17.3076 17.1587 17.2154 17.3228 17.0513C17.4869 16.8872 17.5791 16.6647 17.5791 16.4326C17.5791 16.2006 17.4869 15.978 17.3228 15.8139C17.1587 15.6498 16.9362 15.5576 16.7041 15.5576H7.56648C7.02356 15.5577 6.49396 15.3895 6.05064 15.0761C5.60731 14.7627 5.27208 14.3195 5.0911 13.8076H15.529C16.5546 13.8077 17.5477 13.4475 18.3347 12.7898C19.1217 12.1322 19.6527 11.2189 19.8349 10.2096C19.8553 10.0965 19.8532 9.98044 19.8288 9.8681C19.8044 9.75577 19.7581 9.64935 19.6925 9.55492C19.6269 9.4605 19.5434 9.37992 19.4466 9.3178C19.3499 9.25568 19.2419 9.21322 19.1287 9.19287Z" fill="#004EFF"/>
</g>
<defs>
<clipPath id="clip0_472_1517">
<rect width="21" height="21" fill="white" transform="translate(0.0791016 0.682617)"/>
</clipPath>
</defs>
</svg>
