<svg width="22" height="22" viewBox="0 0 22 22" fill="none" xmlns="http://www.w3.org/2000/svg">
<g clip-path="url(#clip0_472_1525)">
<path d="M19.3292 4.18262H14.9542V2.43262C14.9542 1.96849 14.7699 1.52337 14.4417 1.19518C14.1135 0.866992 13.6684 0.682617 13.2042 0.682617H7.95423C7.4901 0.682617 7.04498 0.866992 6.71679 1.19518C6.38861 1.52337 6.20423 1.96849 6.20423 2.43262V4.18262H1.82923V5.93262H3.57923V19.0576C3.57923 19.7538 3.85579 20.4215 4.34808 20.9138C4.84036 21.4061 5.50804 21.6826 6.20423 21.6826H14.9542C15.6504 21.6826 16.3181 21.4061 16.8104 20.9138C17.3027 20.4215 17.5792 19.7538 17.5792 19.0576V5.93262H19.3292V4.18262ZM7.95423 2.43262H13.2042V4.18262H7.95423V2.43262ZM15.8292 19.0576C15.8292 19.2897 15.737 19.5122 15.573 19.6763C15.4089 19.8404 15.1863 19.9326 14.9542 19.9326H6.20423C5.97217 19.9326 5.74961 19.8404 5.58551 19.6763C5.42142 19.5122 5.32923 19.2897 5.32923 19.0576V5.93262H15.8292V19.0576Z" fill="#FF0000" fill-opacity="0.7"/>
<path d="M9.7041 9.43213H7.95411V16.4321H9.7041V9.43213Z" fill="#FF0000" fill-opacity="0.7"/>
<path d="M13.2044 9.43213H11.4544V16.4321H13.2044V9.43213Z" fill="#FF0000" fill-opacity="0.7"/>
</g>
<defs>
<clipPath id="clip0_472_1525">
<rect width="21" height="21" fill="white" transform="translate(0.0791016 0.682617)"/>
</clipPath>
</defs>
</svg>
