<svg width="22" height="22" viewBox="0 0 22 22" fill="none" xmlns="http://www.w3.org/2000/svg">
<g clip-path="url(#clip0_479_4937)">
<path d="M10.5791 0.682617C8.5024 0.682617 6.47233 1.29843 4.74562 2.45219C3.0189 3.60594 1.67309 5.24582 0.878371 7.16444C0.0836511 9.08307 -0.124284 11.1943 0.280861 13.2311C0.686006 15.2679 1.68603 17.1388 3.15448 18.6072C4.62294 20.0757 6.49386 21.0757 8.53066 21.4809C10.5675 21.886 12.6787 21.6781 14.5973 20.8834C16.5159 20.0886 18.1558 18.7428 19.3095 17.0161C20.4633 15.2894 21.0791 13.2593 21.0791 11.1826C21.0761 8.39877 19.9689 5.7298 18.0004 3.76132C16.0319 1.79284 13.363 0.685628 10.5791 0.682617V0.682617ZM10.5791 19.9326C8.84852 19.9326 7.1568 19.4194 5.71787 18.458C4.27894 17.4965 3.15743 16.13 2.49516 14.5311C1.83289 12.9322 1.65961 11.1729 1.99724 9.47558C2.33486 7.77824 3.16821 6.21914 4.39192 4.99543C5.61563 3.77172 7.17473 2.93837 8.87207 2.60075C10.5694 2.26313 12.3287 2.4364 13.9276 3.09867C15.5264 3.76094 16.893 4.88245 17.8545 6.32138C18.8159 7.76031 19.3291 9.45203 19.3291 11.1826C19.3266 13.5025 18.4039 15.7266 16.7635 17.367C15.1231 19.0074 12.899 19.9301 10.5791 19.9326V19.9326Z" fill="black" fill-opacity="0.7"/>
<path d="M10.579 9.43286H9.70398C9.47191 9.43286 9.24935 9.52505 9.08526 9.68914C8.92117 9.85324 8.82898 10.0758 8.82898 10.3079C8.82898 10.5399 8.92117 10.7625 9.08526 10.9266C9.24935 11.0907 9.47191 11.1829 9.70398 11.1829H10.579V16.4329C10.579 16.6649 10.6712 16.8875 10.8353 17.0516C10.9994 17.2157 11.2219 17.3079 11.454 17.3079C11.686 17.3079 11.9086 17.2157 12.0727 17.0516C12.2368 16.8875 12.329 16.6649 12.329 16.4329V11.1829C12.329 10.7187 12.1446 10.2736 11.8164 9.94542C11.4882 9.61724 11.0431 9.43286 10.579 9.43286Z" fill="black" fill-opacity="0.7"/>
<path d="M10.5791 7.68237C11.304 7.68237 11.8916 7.09475 11.8916 6.36987C11.8916 5.645 11.304 5.05737 10.5791 5.05737C9.85423 5.05737 9.2666 5.645 9.2666 6.36987C9.2666 7.09475 9.85423 7.68237 10.5791 7.68237Z" fill="black" fill-opacity="0.7"/>
</g>
<defs>
<clipPath id="clip0_479_4937">
<rect width="21" height="21" fill="white" transform="translate(0.0791016 0.682617)"/>
</clipPath>
</defs>
</svg>
