<svg width="22" height="22" viewBox="0 0 22 22" fill="none" xmlns="http://www.w3.org/2000/svg">
<g clip-path="url(#clip0_472_1533)">
<path d="M20.1516 1.60883C19.5567 1.01488 18.7505 0.681274 17.9098 0.681274C17.0692 0.681274 16.263 1.01488 15.6681 1.60883L0.0790939 17.1978V21.6813H4.56259L20.1516 6.09233C20.7453 5.49735 21.0788 4.69113 21.0788 3.85058C21.0788 3.01003 20.7453 2.20381 20.1516 1.60883ZM3.84159 19.9313H1.82909V17.9188L13.4753 6.28133L15.4878 8.29383L3.84159 19.9313ZM18.9143 4.85508L16.7207 7.0487L14.7126 5.0362L16.9053 2.84608C17.1722 2.57921 17.5342 2.42928 17.9116 2.42928C18.289 2.42928 18.651 2.57921 18.9178 2.84608C19.1847 3.11295 19.3346 3.47491 19.3346 3.85233C19.3346 4.22975 19.1847 4.59171 18.9178 4.85858L18.9143 4.85508Z" fill="black" fill-opacity="0.7"/>
</g>
<defs>
<clipPath id="clip0_472_1533">
<rect width="21" height="21" fill="white" transform="translate(0.0791016 0.682617)"/>
</clipPath>
</defs>
</svg>
